@startuml

!definelong s(x,y1)
class x <<(S,magenta)>> {
}
y1 <|-- x
!enddefinelong

class ポケモン図鑑画面状態 <<(S,magenta)>> {}

class ローディング中 {}

class 読み込みエラー {}

class ポケモン一覧取得済 <<(S,magenta)>> {
    ポケモン一覧: List<Pokemon>
}

class 読み込み済 {}

class 追加読み込み中 {}

class 追加読み込みエラー {}

ポケモン図鑑画面状態 <|-- ローディング中
ポケモン図鑑画面状態 <|-- 読み込みエラー

ポケモン図鑑画面状態 <|-- ポケモン一覧取得済

ポケモン一覧取得済 <|-- 読み込み済
ポケモン一覧取得済 <|-- 追加読み込み中
ポケモン一覧取得済 <|-- 追加読み込みエラー

@enduml